<?xml version="1.0" encoding="utf-8"?>
<!-- Generator: Adobe Illustrator 25.2.0, SVG Export Plug-In . SVG Version: 6.00 Build 0)  -->
<svg version="1.1" id="Layer_1" xmlns="http://www.w3.org/2000/svg" xmlns:xlink="http://www.w3.org/1999/xlink" x="0px" y="0px"
	 viewBox="0 0 232.5 67.6" style="enable-background:new 0 0 232.5 67.6;" xml:space="preserve">
<style type="text/css">
	.st0{clip-path:url(#SVGID_3_);fill:url(#SVGID_4_);}
	.st1{clip-path:url(#SVGID_6_);fill:url(#SVGID_7_);}
	.st2{clip-path:url(#SVGID_6_);fill:url(#SVGID_8_);}
	.st3{clip-path:url(#SVGID_6_);fill:url(#SVGID_9_);}
	.st4{clip-path:url(#SVGID_6_);fill:url(#SVGID_10_);}
	.st5{clip-path:url(#SVGID_6_);fill:url(#SVGID_11_);}
	.st6{clip-path:url(#SVGID_6_);fill:url(#SVGID_12_);}
	.st7{clip-path:url(#SVGID_6_);fill:url(#SVGID_13_);}
	.st8{clip-path:url(#SVGID_6_);fill:url(#SVGID_14_);}
	.st9{clip-path:url(#SVGID_6_);fill:url(#SVGID_15_);}
	.st10{clip-path:url(#SVGID_6_);fill:url(#SVGID_16_);}
	.st11{clip-path:url(#SVGID_6_);fill:url(#SVGID_17_);}
</style>
<g>
	<defs>
		<path id="SVGID_1_" d="M40.3,39.1c0.2-0.1,0.3-0.1,0.5-0.2c2.6-1.2,4.5-3.8,4.5-6.9c0-3.1-1.8-5.7-4.5-6.9V11L66.5,1
			c0.7-0.3,1.5-0.2,2.1,0.3c0.3,0.2,0.6,0.5,0.8,0.9c0.2,0.3,0.2,0.6,0.2,1v47.1c0,1-0.6,1.8-1.5,2.2l-11,4.6
			c-1.1-8.4-7.8-15.1-16.2-16.3c-1.1-0.2-2.3-0.2-3.4-0.2c-0.2,0-0.3,0-0.5,0c0,0,0,0,0,0c-0.2,0-0.4,0-0.6,0.1
			c-0.2,0-0.4,0-0.6,0.1c0,0,0,0,0,0c-0.1,0-0.2,0-0.3,0c-0.1,0-0.2,0-0.3,0c0,0,0,0,0,0c-0.3,0.1-0.5,0.1-0.5,0.1
			c-8.1,1.6-14.3,8.2-15.3,16.5l-12-5c-0.9-0.3-1.5-1.2-1.5-2.2V3.2c0-0.3,0.1-0.7,0.2-1c0.2-0.4,0.4-0.7,0.8-0.9
			C7.2,1,7.6,0.9,8.1,0.9c0.3,0,0.5,0,0.8,0.1l25.7,10v14c-2.6,1.2-4.5,3.8-4.5,6.9c0,3.1,1.8,5.7,4.5,6.9c0.2,0.1,0.3,0.1,0.5,0.2
			c0.8,0.3,1.7,0.5,2.6,0.5C38.6,39.5,39.5,39.4,40.3,39.1 M66.3,0.5l-26,10.1v14.2c-0.8-0.3-1.7-0.5-2.6-0.5
			c-0.9,0-1.8,0.2-2.6,0.5V10.6L9.1,0.5C8.2,0.2,7.3,0.3,6.5,0.9c-0.6,0.4-1,1-1.1,1.6v0C4.6,3,4.1,3.8,4.1,4.8V54
			c0,1.1,0.7,2.1,1.8,2.5l29.3,11.3h5.1l29.3-11.3c1.1-0.4,1.8-1.4,1.8-2.5V4.8c0-1-0.5-1.8-1.2-2.3c-0.2-0.7-0.6-1.2-1.1-1.6
			c-0.5-0.3-1-0.5-1.6-0.5C67,0.3,66.7,0.4,66.3,0.5"/>
	</defs>
	<linearGradient id="SVGID_2_" gradientUnits="userSpaceOnUse" x1="4.128" y1="34.0747" x2="71.3076" y2="34.0747">
		<stop  offset="1" style="stop-color:#104A8E"/>
		<stop  offset="1" style="stop-color:#104C8F"/>
		<stop  offset="1" style="stop-color:#125392"/>
		<stop  offset="1" style="stop-color:#145E99"/>
		<stop  offset="1" style="stop-color:#176FA1"/>
		<stop  offset="1" style="stop-color:#1B85AD"/>
		<stop  offset="1" style="stop-color:#1FA1BB"/>
		<stop  offset="1" style="stop-color:#25C0CB"/>
		<stop  offset="1" style="stop-color:#2BE2DD"/>
	</linearGradient>
	<use xlink:href="#SVGID_1_"  style="overflow:visible;fill:url(#SVGID_2_);"/>
	<clipPath id="SVGID_3_">
		<use xlink:href="#SVGID_1_"  style="overflow:visible;"/>
	</clipPath>
	<linearGradient id="SVGID_4_" gradientUnits="userSpaceOnUse" x1="-26.9136" y1="34.0024" x2="102.3492" y2="34.0024">
		<stop  offset="1" style="stop-color:#104A8E"/>
		<stop  offset="1" style="stop-color:#104C8F"/>
		<stop  offset="1" style="stop-color:#125392"/>
		<stop  offset="1" style="stop-color:#145E99"/>
		<stop  offset="1" style="stop-color:#176FA1"/>
		<stop  offset="1" style="stop-color:#1B85AD"/>
		<stop  offset="1" style="stop-color:#1FA1BB"/>
		<stop  offset="1" style="stop-color:#25C0CB"/>
		<stop  offset="1" style="stop-color:#2BE2DD"/>
	</linearGradient>
	<polygon class="st0" points="-26.9,20.6 51,-30.6 102.3,47.4 24.4,98.7 	"/>
</g>
<g>
	<defs>
		<rect id="SVGID_5_" x="-1.3" y="-161" width="290.7" height="290.7"/>
	</defs>
	<clipPath id="SVGID_6_">
		<use xlink:href="#SVGID_5_"  style="overflow:visible;"/>
	</clipPath>
	<linearGradient id="SVGID_7_" gradientUnits="userSpaceOnUse" x1="90.3898" y1="18.2069" x2="102.8727" y2="18.2069">
		<stop  offset="1" style="stop-color:#104A8E"/>
		<stop  offset="1" style="stop-color:#104C8F"/>
		<stop  offset="1" style="stop-color:#125392"/>
		<stop  offset="1" style="stop-color:#145E99"/>
		<stop  offset="1" style="stop-color:#176FA1"/>
		<stop  offset="1" style="stop-color:#1B85AD"/>
		<stop  offset="1" style="stop-color:#1FA1BB"/>
		<stop  offset="1" style="stop-color:#25C0CB"/>
		<stop  offset="1" style="stop-color:#2BE2DD"/>
	</linearGradient>
	<path class="st1" d="M97.6,25.5c-1,0-2-0.2-2.9-0.6c-0.9-0.4-1.7-0.9-2.3-1.5c-0.6-0.7-1.2-1.4-1.5-2.3c-0.4-0.9-0.5-1.8-0.5-2.8v0
		c0-1,0.2-2,0.5-2.8c0.4-0.9,0.9-1.7,1.5-2.3c0.6-0.7,1.4-1.2,2.3-1.6c0.9-0.4,1.9-0.6,3-0.6c0.7,0,1.3,0.1,1.8,0.2
		c0.5,0.1,1,0.3,1.5,0.4c0.4,0.2,0.9,0.4,1.2,0.7c0.6,0.4,0.7,1.3,0.2,1.8l-0.3,0.4c-0.4,0.5-1.1,0.6-1.7,0.2
		c-0.3-0.2-0.5-0.3-0.8-0.5c-0.6-0.3-1.2-0.4-1.9-0.4c-0.6,0-1.1,0.1-1.6,0.3c-0.5,0.2-0.9,0.5-1.3,0.9c-0.4,0.4-0.6,0.9-0.8,1.4
		c-0.2,0.5-0.3,1.1-0.3,1.7v0c0,0.6,0.1,1.2,0.3,1.7c0.2,0.5,0.5,1,0.8,1.4c0.4,0.4,0.8,0.7,1.3,1c0.5,0.2,1.1,0.4,1.7,0.4
		c0.8,0,1.5-0.1,2-0.4c0.3-0.1,0.6-0.3,0.8-0.5c0.5-0.4,1.2-0.3,1.7,0.2l0.2,0.2c0.5,0.5,0.5,1.4-0.1,1.9c0,0-0.1,0.1-0.1,0.1
		c-0.4,0.3-0.8,0.6-1.3,0.8c-0.5,0.2-1,0.4-1.5,0.5C98.9,25.5,98.3,25.5,97.6,25.5"/>
	<linearGradient id="SVGID_8_" gradientUnits="userSpaceOnUse" x1="105.2831" y1="18.2069" x2="120.2977" y2="18.2069">
		<stop  offset="1" style="stop-color:#104A8E"/>
		<stop  offset="1" style="stop-color:#104C8F"/>
		<stop  offset="1" style="stop-color:#125392"/>
		<stop  offset="1" style="stop-color:#145E99"/>
		<stop  offset="1" style="stop-color:#176FA1"/>
		<stop  offset="1" style="stop-color:#1B85AD"/>
		<stop  offset="1" style="stop-color:#1FA1BB"/>
		<stop  offset="1" style="stop-color:#25C0CB"/>
		<stop  offset="1" style="stop-color:#2BE2DD"/>
	</linearGradient>
	<path class="st2" d="M112.8,25.5c-1.1,0-2.1-0.2-3-0.6c-0.9-0.4-1.7-0.9-2.4-1.6c-0.7-0.7-1.2-1.4-1.6-2.3
		c-0.4-0.9-0.6-1.8-0.6-2.8v0c0-1,0.2-2,0.6-2.8c0.4-0.9,0.9-1.7,1.6-2.3c0.7-0.7,1.5-1.2,2.4-1.6s1.9-0.6,3-0.6s2.1,0.2,3,0.6
		c0.9,0.4,1.7,0.9,2.4,1.6c0.7,0.7,1.2,1.4,1.6,2.3c0.4,0.9,0.6,1.8,0.6,2.8v0c0,1-0.2,2-0.6,2.8c-0.4,0.9-0.9,1.7-1.6,2.3
		c-0.7,0.7-1.5,1.2-2.4,1.6C114.9,25.3,113.9,25.5,112.8,25.5 M112.8,22.6c0.6,0,1.2-0.1,1.7-0.3c0.5-0.2,1-0.5,1.3-0.9
		c0.4-0.4,0.7-0.9,0.9-1.4c0.2-0.5,0.3-1.1,0.3-1.7v0c0-0.6-0.1-1.2-0.3-1.7c-0.2-0.5-0.5-1-0.9-1.4c-0.4-0.4-0.8-0.7-1.4-1
		c-0.5-0.2-1.1-0.4-1.7-0.4c-0.6,0-1.2,0.1-1.7,0.3c-0.5,0.2-1,0.5-1.3,0.9c-0.4,0.4-0.7,0.9-0.9,1.4c-0.2,0.5-0.3,1.1-0.3,1.7v0
		c0,0.6,0.1,1.2,0.3,1.7c0.2,0.5,0.5,1,0.9,1.4c0.4,0.4,0.8,0.7,1.4,1C111.6,22.5,112.2,22.6,112.8,22.6"/>
	<linearGradient id="SVGID_9_" gradientUnits="userSpaceOnUse" x1="123.0623" y1="18.2068" x2="135.6145" y2="18.2068">
		<stop  offset="1" style="stop-color:#104A8E"/>
		<stop  offset="1" style="stop-color:#104C8F"/>
		<stop  offset="1" style="stop-color:#125392"/>
		<stop  offset="1" style="stop-color:#145E99"/>
		<stop  offset="1" style="stop-color:#176FA1"/>
		<stop  offset="1" style="stop-color:#1B85AD"/>
		<stop  offset="1" style="stop-color:#1FA1BB"/>
		<stop  offset="1" style="stop-color:#25C0CB"/>
		<stop  offset="1" style="stop-color:#2BE2DD"/>
	</linearGradient>
	<path class="st3" d="M125,11.1L125,11.1c0.6,0,1.2,0.3,1.5,0.8l5.4,7.2c0.2,0.3,0.6,0.1,0.6-0.2v-6.2c0-0.8,0.7-1.5,1.5-1.5
		c0.8,0,1.5,0.7,1.5,1.5v10.8c0,1-0.8,1.8-1.8,1.8c-0.6,0-1.1-0.3-1.4-0.7l-5.9-7.7c-0.1-0.2-0.4-0.1-0.4,0.2v6.7
		c0,0.8-0.7,1.5-1.5,1.5s-1.5-0.7-1.5-1.5V13.1C123.1,12,123.9,11.1,125,11.1"/>
	<linearGradient id="SVGID_10_" gradientUnits="userSpaceOnUse" x1="139.0815" y1="18.2068" x2="151.6336" y2="18.2068">
		<stop  offset="1" style="stop-color:#104A8E"/>
		<stop  offset="1" style="stop-color:#104C8F"/>
		<stop  offset="1" style="stop-color:#125392"/>
		<stop  offset="1" style="stop-color:#145E99"/>
		<stop  offset="1" style="stop-color:#176FA1"/>
		<stop  offset="1" style="stop-color:#1B85AD"/>
		<stop  offset="1" style="stop-color:#1FA1BB"/>
		<stop  offset="1" style="stop-color:#25C0CB"/>
		<stop  offset="1" style="stop-color:#2BE2DD"/>
	</linearGradient>
	<path class="st4" d="M141,11.1L141,11.1c0.6,0,1.2,0.3,1.5,0.8l5.4,7.2c0.2,0.3,0.6,0.1,0.6-0.2v-6.2c0-0.8,0.7-1.5,1.5-1.5
		c0.8,0,1.5,0.7,1.5,1.5v10.8c0,1-0.8,1.8-1.8,1.8c-0.6,0-1.1-0.3-1.4-0.7l-5.9-7.7c-0.1-0.2-0.4-0.1-0.4,0.2v6.7
		c0,0.8-0.7,1.5-1.5,1.5c-0.8,0-1.5-0.7-1.5-1.5V13.1C139.1,12,139.9,11.1,141,11.1"/>
	<linearGradient id="SVGID_11_" gradientUnits="userSpaceOnUse" x1="167.8432" y1="18.2069" x2="180.3256" y2="18.2069">
		<stop  offset="1" style="stop-color:#104A8E"/>
		<stop  offset="1" style="stop-color:#104C8F"/>
		<stop  offset="1" style="stop-color:#125392"/>
		<stop  offset="1" style="stop-color:#145E99"/>
		<stop  offset="1" style="stop-color:#176FA1"/>
		<stop  offset="1" style="stop-color:#1B85AD"/>
		<stop  offset="1" style="stop-color:#1FA1BB"/>
		<stop  offset="1" style="stop-color:#25C0CB"/>
		<stop  offset="1" style="stop-color:#2BE2DD"/>
	</linearGradient>
	<path class="st5" d="M175.1,25.5c-1,0-2-0.2-2.9-0.6c-0.9-0.4-1.7-0.9-2.3-1.5c-0.6-0.7-1.2-1.4-1.5-2.3c-0.4-0.9-0.5-1.8-0.5-2.8
		v0c0-1,0.2-2,0.5-2.8c0.4-0.9,0.9-1.7,1.5-2.3c0.6-0.7,1.4-1.2,2.3-1.6c0.9-0.4,1.9-0.6,3-0.6c0.7,0,1.3,0.1,1.8,0.2
		c0.5,0.1,1,0.3,1.5,0.4c0.4,0.2,0.9,0.4,1.2,0.7c0.6,0.4,0.7,1.3,0.2,1.8l-0.3,0.4c-0.4,0.5-1.1,0.6-1.7,0.2
		c-0.3-0.2-0.5-0.3-0.8-0.5c-0.6-0.3-1.2-0.4-1.9-0.4c-0.6,0-1.1,0.1-1.6,0.3c-0.5,0.2-0.9,0.5-1.3,0.9c-0.4,0.4-0.6,0.9-0.8,1.4
		c-0.2,0.5-0.3,1.1-0.3,1.7v0c0,0.6,0.1,1.2,0.3,1.7c0.2,0.5,0.5,1,0.8,1.4c0.4,0.4,0.8,0.7,1.3,1c0.5,0.2,1.1,0.4,1.7,0.4
		c0.8,0,1.5-0.1,2-0.4c0.3-0.1,0.6-0.3,0.8-0.5c0.5-0.4,1.2-0.3,1.7,0.2l0.2,0.2c0.5,0.5,0.5,1.4-0.1,1.9c0,0-0.1,0.1-0.1,0.1
		c-0.4,0.3-0.8,0.6-1.3,0.8s-1,0.4-1.5,0.5C176.4,25.5,175.8,25.5,175.1,25.5"/>
	<linearGradient id="SVGID_12_" gradientUnits="userSpaceOnUse" x1="182.3525" y1="18.2068" x2="194.058" y2="18.2068">
		<stop  offset="1" style="stop-color:#104A8E"/>
		<stop  offset="1" style="stop-color:#104C8F"/>
		<stop  offset="1" style="stop-color:#125392"/>
		<stop  offset="1" style="stop-color:#145E99"/>
		<stop  offset="1" style="stop-color:#176FA1"/>
		<stop  offset="1" style="stop-color:#1B85AD"/>
		<stop  offset="1" style="stop-color:#1FA1BB"/>
		<stop  offset="1" style="stop-color:#25C0CB"/>
		<stop  offset="1" style="stop-color:#2BE2DD"/>
	</linearGradient>
	<path class="st6" d="M185.4,14h-1.7c-0.7,0-1.3-0.6-1.3-1.3v-0.3c0-0.7,0.6-1.3,1.3-1.3h9.1c0.7,0,1.3,0.6,1.3,1.3v0.3
		c0,0.7-0.6,1.3-1.3,1.3H191c-0.7,0-1.3,0.6-1.3,1.3V24c0,0.7-0.6,1.3-1.3,1.3h-0.5c-0.7,0-1.3-0.6-1.3-1.3v-8.7
		C186.7,14.6,186.1,14,185.4,14"/>
	<linearGradient id="SVGID_13_" gradientUnits="userSpaceOnUse" x1="154.8914" y1="18.2053" x2="165.6302" y2="18.2053">
		<stop  offset="1" style="stop-color:#104A8E"/>
		<stop  offset="1" style="stop-color:#104C8F"/>
		<stop  offset="1" style="stop-color:#125392"/>
		<stop  offset="1" style="stop-color:#145E99"/>
		<stop  offset="1" style="stop-color:#176FA1"/>
		<stop  offset="1" style="stop-color:#1B85AD"/>
		<stop  offset="1" style="stop-color:#1FA1BB"/>
		<stop  offset="1" style="stop-color:#25C0CB"/>
		<stop  offset="1" style="stop-color:#2BE2DD"/>
	</linearGradient>
	<path class="st7" d="M164.4,22.5h-5.1c-0.7,0-1.3-0.6-1.3-1.3v-0.4c0-0.7,0.6-1.3,1.3-1.3h4.1c0.7,0,1.3-0.6,1.3-1.3v-0.2
		c0-0.7-0.6-1.3-1.3-1.3h-4.1c0,0-0.1,0-0.1,0h-2.8c-0.8,0-1.4,0.6-1.4,1.4V24c0,0.7,0.6,1.3,1.3,1.3h8.2c0.7,0,1.3-0.6,1.3-1.3
		v-0.2C165.6,23.1,165.1,22.5,164.4,22.5 M162.2,13.9h2c0.7,0,1.3-0.6,1.3-1.3v-0.2c0-0.7-0.6-1.3-1.3-1.3h-8.1
		c-0.7,0-1.3,0.6-1.3,1.3c0,0.8,0.7,1.5,1.5,1.5L162.2,13.9L162.2,13.9z"/>
	<linearGradient id="SVGID_14_" gradientUnits="userSpaceOnUse" x1="114.6258" y1="43.671" x2="135.2337" y2="43.671">
		<stop  offset="1" style="stop-color:#104A8E"/>
		<stop  offset="1" style="stop-color:#104C8F"/>
		<stop  offset="1" style="stop-color:#125392"/>
		<stop  offset="1" style="stop-color:#145E99"/>
		<stop  offset="1" style="stop-color:#176FA1"/>
		<stop  offset="1" style="stop-color:#1B85AD"/>
		<stop  offset="1" style="stop-color:#1FA1BB"/>
		<stop  offset="1" style="stop-color:#25C0CB"/>
		<stop  offset="1" style="stop-color:#2BE2DD"/>
	</linearGradient>
	<path class="st8" d="M132.8,51.9H123c-1.4,0-2.4-1.1-2.4-2.4v-0.8c0-1.4,1.1-2.5,2.5-2.5h7.8c1.4,0,2.5-1.1,2.5-2.5v-0.4
		c0-1.4-1.1-2.4-2.4-2.4H123c-0.1,0-0.2,0-0.2,0h-5.4c-1.5,0-2.7,1.2-2.7,2.7v11.1c0,1.4,1.1,2.4,2.4,2.4h15.7
		c1.3,0,2.4-1.1,2.4-2.4v-0.4C135.2,53,134.1,51.9,132.8,51.9 M128.7,35.4h3.9c1.4,0,2.5-1.1,2.5-2.5v-0.4c0-1.4-1.1-2.5-2.5-2.5
		h-15.5c-1.4,0-2.5,1.1-2.5,2.5c0,1.6,1.3,2.8,2.8,2.8L128.7,35.4L128.7,35.4z"/>
	<linearGradient id="SVGID_15_" gradientUnits="userSpaceOnUse" x1="140.5738" y1="43.674" x2="165.5534" y2="43.674">
		<stop  offset="1" style="stop-color:#104A8E"/>
		<stop  offset="1" style="stop-color:#104C8F"/>
		<stop  offset="1" style="stop-color:#125392"/>
		<stop  offset="1" style="stop-color:#145E99"/>
		<stop  offset="1" style="stop-color:#176FA1"/>
		<stop  offset="1" style="stop-color:#1B85AD"/>
		<stop  offset="1" style="stop-color:#1FA1BB"/>
		<stop  offset="1" style="stop-color:#25C0CB"/>
		<stop  offset="1" style="stop-color:#2BE2DD"/>
	</linearGradient>
	<path class="st9" d="M140.6,32.6c0-1.4,1.1-2.5,2.5-2.5h8.1c2.1,0,4.1,0.3,5.8,1c1.8,0.7,3.3,1.6,4.6,2.8c1.3,1.2,2.3,2.6,3,4.3
		c0.7,1.6,1,3.4,1,5.3v0.1c0,1.9-0.3,3.7-1,5.3c-0.7,1.7-1.7,3.1-3,4.3c-1.3,1.2-2.8,2.2-4.6,2.9c-1.8,0.7-3.7,1-5.8,1H143
		c-1.4,0-2.5-1.1-2.5-2.5V32.6z M151.1,51.8c1.2,0,2.3-0.2,3.3-0.6c1-0.4,1.9-0.9,2.6-1.7c0.7-0.7,1.3-1.6,1.7-2.6
		c0.4-1,0.6-2.1,0.6-3.3v-0.1c0-1.2-0.2-2.3-0.6-3.3c-0.4-1-1-1.9-1.7-2.6c-0.7-0.7-1.6-1.3-2.6-1.7c-1-0.4-2.1-0.6-3.3-0.6H149
		c-1.4,0-2.5,1.1-2.5,2.5v11.4c0,1.4,1.1,2.5,2.5,2.5H151.1z"/>
	<linearGradient id="SVGID_16_" gradientUnits="userSpaceOnUse" x1="170.4339" y1="43.8871" x2="194.0577" y2="43.8871">
		<stop  offset="1" style="stop-color:#104A8E"/>
		<stop  offset="1" style="stop-color:#104C8F"/>
		<stop  offset="1" style="stop-color:#125392"/>
		<stop  offset="1" style="stop-color:#145E99"/>
		<stop  offset="1" style="stop-color:#176FA1"/>
		<stop  offset="1" style="stop-color:#1B85AD"/>
		<stop  offset="1" style="stop-color:#1FA1BB"/>
		<stop  offset="1" style="stop-color:#25C0CB"/>
		<stop  offset="1" style="stop-color:#2BE2DD"/>
	</linearGradient>
	<path class="st10" d="M182.2,57.7c-3.6,0-6.5-1-8.6-3c-2.1-2-3.1-5-3.1-9v-13c0-1.4,1.1-2.5,2.5-2.5h1c1.4,0,2.5,1.1,2.5,2.5v12.9
		c0,2.2,0.5,3.9,1.5,5c1,1.1,2.5,1.7,4.3,1.7c1.8,0,3.3-0.5,4.3-1.6c1-1.1,1.5-2.7,1.5-4.9V32.6c0-1.4,1.1-2.5,2.5-2.5h1
		c1.4,0,2.5,1.1,2.5,2.5v12.8c0,2.1-0.3,3.9-0.8,5.4c-0.6,1.5-1.3,2.8-2.4,3.8c-1,1-2.3,1.8-3.8,2.3C185.6,57.4,184,57.7,182.2,57.7
		"/>
	<linearGradient id="SVGID_17_" gradientUnits="userSpaceOnUse" x1="90.2343" y1="43.5308" x2="109.9105" y2="43.5308">
		<stop  offset="1" style="stop-color:#104A8E"/>
		<stop  offset="1" style="stop-color:#104C8F"/>
		<stop  offset="1" style="stop-color:#125392"/>
		<stop  offset="1" style="stop-color:#145E99"/>
		<stop  offset="1" style="stop-color:#176FA1"/>
		<stop  offset="1" style="stop-color:#1B85AD"/>
		<stop  offset="1" style="stop-color:#1FA1BB"/>
		<stop  offset="1" style="stop-color:#25C0CB"/>
		<stop  offset="1" style="stop-color:#2BE2DD"/>
	</linearGradient>
	<path class="st11" d="M90.2,53.8c0-0.9,0.4-1.7,1.1-2.2l7.8-6.4c0.8-0.7,1.5-1.3,2.1-1.8c0.6-0.5,1.1-1.1,1.4-1.6
		c0.4-0.5,0.6-1,0.8-1.4c0.2-0.5,0.2-1,0.2-1.5c0-1.1-0.3-2-1-2.6c-0.7-0.6-1.5-0.9-2.6-0.9c-1,0-2,0.3-2.8,0.9
		c-0.5,0.4-1,0.8-1.5,1.4c-0.7,0.7-1.8,0.8-2.5,0.2l-1.2-1c-0.8-0.7-0.9-1.9-0.2-2.7c0.3-0.3,0.5-0.6,0.8-0.8
		c0.7-0.7,1.4-1.3,2.2-1.7c0.8-0.5,1.6-0.8,2.6-1.1c0.9-0.2,2-0.4,3.2-0.4c1.4,0,2.6,0.2,3.7,0.6c1.1,0.4,2.1,0.9,2.9,1.7
		c0.8,0.7,1.4,1.6,1.9,2.6c0.4,1,0.7,2.1,0.7,3.4v0.1c0,1.1-0.1,2.1-0.4,3c-0.3,0.9-0.7,1.7-1.3,2.5c-0.6,0.8-1.3,1.5-2.2,2.3
		c-0.9,0.8-1.9,1.6-3.1,2.5l-3.2,2.5c-0.4,0.3-0.2,0.9,0.3,0.9h8.3c1,0,1.9,0.8,1.9,1.9v1.3c0,1-0.8,1.9-1.9,1.9H93.1
		c-1.6,0-2.9-1.3-2.9-2.9V53.8z"/>
</g>
</svg>
